# xmcd
#
# Track frame offsets:
#	150
#	14920
#	29070
#	45562
#	61227
#	77020
#	97960
#	110232
#	126672
#	142600
#
# Disc length: 2144 seconds
#
# Revision: 1
# Processed by: cddbd v1.5.1PL0 Copyright (c) Steve Scherf et al.
# Submitted via: audiograbber 1.83.01
#
DISCID=8b085e0a
DTITLE=Lizza Connor - Runaway
DYEAR=2004
DGENRE=Country
TTITLE0=Runaway
TTITLE1=Bella Sera
TTITLE2=I Won't
TTITLE3=Can't Call it Home
TTITLE4=There is a Place
TTITLE5=Amy
TTITLE6=Arlington
TTITLE7=Broken
TTITLE8=I Need You Here
TTITLE9=New Mexico Romance
EXTD=
EXTT0=
EXTT1=
EXTT2=
EXTT3=
EXTT4=
EXTT5=
EXTT6=
EXTT7=
EXTT8=
EXTT9=
PLAYORDER=
